C:\Users\r0593348\3dpredictsim\Results\Batchsim_tmt_linear_v2\Pog_s1_tmt_aCst_d00_k500_ig24_act_GRF.mot
nRows=17
nColumns=19

name C:\Users\r0593348\3dpredictsim\Results\Batchsim_tmt_linear_v2\Pog_s1_tmt_aCst_d00_k500_ig24_act_GRF.mot
datacolumns 19
datarows 17
range 0.7344181826 0.9694320011
endheader
time 	ground_force_vx	ground_force_vy	ground_force_vz	ground_force_px	ground_force_py	ground_force_pz	1_ground_force_vx	1_ground_force_vy	1_ground_force_vz	1_ground_force_px	1_ground_force_py	1_ground_force_pz	ground_torque_x	ground_torque_y	ground_torque_z	1_ground_torque_x	1_ground_torque_y	1_ground_torque_z
        0.7344181826	       32.1106322915	      202.2236045547	        9.6542176601	        0.4927172873	        0.0000000000	        0.0557647288	      -78.4933838627	      177.9036460187	      -30.6978978635	        1.1685775329	        0.0000000000	       -0.0509517896	        0.0000000000	        0.0000000000	        0.0000000000	        0.0000000000	        0.0000000000	        0.0000000000	
        0.7491065463	       27.5292196063	      148.0929843792	       11.6059482534	        0.4932068307	        0.0000000000	        0.0560688331	     -118.1426344098	      593.1344608923	        2.8744804626	        1.1708361641	        0.0000000000	       -0.0500405507	        0.0000000000	        0.0000000000	        0.0000000000	        0.0000000000	        0.0000000000	        0.0000000000	
        0.7637949100	       11.5697583867	       76.7187529929	       13.7619485842	        0.4932134394	        0.0000000000	        0.0569361427	     -177.7605381982	      846.2348804757	        9.4150473547	        1.1742259983	        0.0000000000	       -0.0505848263	        0.0000000000	        0.0000000000	        0.0000000000	        0.0000000000	        0.0000000000	        0.0000000000	
        0.7784832736	      -13.1037372156	       17.2467239377	        3.8856520337	        0.4872869487	        0.0000000000	        0.0567077262	     -248.5437494965	     1031.6994230021	       14.4301284722	        1.1866048193	        0.0000000000	       -0.0541929586	        0.0000000000	        0.0000000000	        0.0000000000	        0.0000000000	        0.0000000000	        0.0000000000	
        0.7931716373	      -18.8781198605	       14.7796734474	       -0.7888723480	        0.4969282531	        0.0000000000	        0.0552279026	     -242.5332057000	     1018.1256253479	       13.3490037869	        1.1956268135	        0.0000000000	       -0.0565158975	        0.0000000000	        0.0000000000	        0.0000000000	        0.0000000000	        0.0000000000	        0.0000000000	
        0.8078600009	      -24.6560072116	       16.7096487184	       -0.3579634074	        0.5174589140	        0.0000000000	        0.0566350466	     -202.9511814371	      898.6075268525	       12.7260503363	        1.2018504675	        0.0000000000	       -0.0578715601	        0.0000000000	        0.0000000000	        0.0000000000	        0.0000000000	        0.0000000000	        0.0000000000	
        0.8225483646	      -26.3849416548	       15.7081410264	       -0.6815718365	        0.5435494906	        0.0000000000	        0.0577168003	     -173.5182511199	      802.4670980492	       11.2911726272	        1.2063221921	        0.0000000000	       -0.0587256087	        0.0000000000	        0.0000000000	        0.0000000000	        0.0000000000	        0.0000000000	        0.0000000000	
        0.8372367282	      -24.8732366841	       13.4981022450	       -0.6920150715	        0.5740829674	        0.0000000000	        0.0589618096	     -151.4116333534	      751.5493580102	       12.2918508895	        1.2101668284	        0.0000000000	       -0.0592629096	        0.0000000000	        0.0000000000	        0.0000000000	        0.0000000000	        0.0000000000	        0.0000000000	
        0.8519250919	      -22.6484142461	       11.4947960424	       -0.6129825184	        0.6076894173	        0.0000000000	        0.0601568278	     -134.4881975066	      724.4732562416	       12.6223364946	        1.2143798824	        0.0000000000	       -0.0599094974	        0.0000000000	        0.0000000000	        0.0000000000	        0.0000000000	        0.0000000000	        0.0000000000	
        0.8666134555	      -19.7156651492	        9.5469884178	       -0.4265746311	        0.0000000000	        0.0000000000	        0.0000000000	     -121.7398919399	      710.7181704111	       13.9293199336	        1.2200306448	        0.0000000000	       -0.0605058166	        0.0000000000	        0.0000000000	        0.0000000000	        0.0000000000	        0.0000000000	        0.0000000000	
        0.8813018192	      -15.7557897487	        7.4343585452	       -0.1365076689	        0.0000000000	        0.0000000000	        0.0000000000	     -110.4561490096	      691.1932664045	       14.3846064082	        1.2261482555	        0.0000000000	       -0.0608894315	        0.0000000000	        0.0000000000	        0.0000000000	        0.0000000000	        0.0000000000	        0.0000000000	
        0.8959901828	      -11.5712292393	        5.3432119232	        0.0400273916	        0.0000000000	        0.0000000000	        0.0000000000	      -99.8162131598	      668.0286700220	       14.8130796591	        1.2317875770	        0.0000000000	       -0.0611933503	        0.0000000000	        0.0000000000	        0.0000000000	        0.0000000000	        0.0000000000	        0.0000000000	
        0.9106785465	       -8.0968253091	        3.6786427072	        0.1167873386	        0.0000000000	        0.0000000000	        0.0000000000	      -89.9741766440	      645.9119386288	       15.6108892843	        1.2370333569	        0.0000000000	       -0.0613696881	        0.0000000000	        0.0000000000	        0.0000000000	        0.0000000000	        0.0000000000	        0.0000000000	
        0.9253669101	       -5.7607220337	        2.5841805039	        0.1408389928	        0.0000000000	        0.0000000000	        0.0000000000	      -80.8247216605	      626.1775317780	       16.8042669839	        1.2418352869	        0.0000000000	       -0.0614955338	        0.0000000000	        0.0000000000	        0.0000000000	        0.0000000000	        0.0000000000	        0.0000000000	
        0.9400552738	       -4.1124003504	        1.8238661272	        0.1297213690	        0.0000000000	        0.0000000000	        0.0000000000	      -72.3371574712	      608.6670748597	       18.2360820469	        1.2462044633	        0.0000000000	       -0.0616111422	        0.0000000000	        0.0000000000	        0.0000000000	        0.0000000000	        0.0000000000	        0.0000000000	
        0.9547436374	       -2.8980818591	        1.2694731177	        0.1017151994	        0.0000000000	        0.0000000000	        0.0000000000	      -64.2923582157	      593.6142772948	       19.6919260790	        1.2502349017	        0.0000000000	       -0.0617132806	        0.0000000000	        0.0000000000	        0.0000000000	        0.0000000000	        0.0000000000	        0.0000000000	
        0.9694320011	       -2.1307215263	        0.9199777625	        0.0753587531	        0.0000000000	        0.0000000000	        0.0000000000	      -56.9463198481	      580.4811506102	       20.9306559063	        1.2539016354	        0.0000000000	       -0.0617968236	        0.0000000000	        0.0000000000	        0.0000000000	        0.0000000000	        0.0000000000	        0.0000000000	
